<?xml version="1.0" encoding="iso-8859-1"?>
<!-- Generator: Adobe Illustrator 19.0.0, SVG Export Plug-In . SVG Version: 6.00 Build 0)  -->
<svg version="1.1" id="Capa_1" xmlns="http://www.w3.org/2000/svg" xmlns:xlink="http://www.w3.org/1999/xlink" x="0px" y="0px"
	 viewBox="0 0 512 512" style="enable-background:new 0 0 512 512;" xml:space="preserve">
<circle style="fill:#40814B;" cx="255.997" cy="256" r="255.997"/>
<path style="fill:#2E6338;" d="M512,256.004c0-2.926-0.067-5.838-0.165-8.74L352.768,88.197l-0.009,0.009
	c-12.401-12.2-29.406-19.735-48.177-19.735c-18.972,0-36.148,7.69-48.582,20.123C243.567,76.16,226.39,68.47,207.417,68.47
	c-37.947,0-68.709,30.763-68.709,68.709c0,8.827,1.683,17.256,4.715,25.008c-30.523,6.998-53.297,34.306-53.297,66.952
	c0,17.371,6.451,33.227,17.084,45.319l-0.113,0.113l43.972,43.972c9.204,11.519,20.239,24.618,30.352,34.745l0.002,0.002
	c0.163,0.163,0.326,0.326,0.489,0.489l54.669,54.669v39.721l60.531,60.531C418.949,489.03,512,383.391,512,256.004z"/>
<rect x="236.583" y="343.701" style="fill:#DF871E;" width="38.836" height="104.468"/>
<rect x="256.125" y="343.701" style="fill:#C27526;" width="19.291" height="104.468"/>
<circle style="fill:#C9E1F6;" cx="304.584" cy="137.183" r="68.704"/>
<circle style="fill:#D6E7F6;" cx="207.419" cy="137.183" r="68.704"/>
<g>
	<circle style="fill:#C9E1F6;" cx="158.832" cy="229.135" r="68.704"/>
	<circle style="fill:#C9E1F6;" cx="255.997" cy="243.97" r="68.704"/>
</g>
<g>
	<circle style="fill:#BCD8F2;" cx="353.161" cy="229.135" r="68.704"/>
	<path style="fill:#BCD8F2;" d="M256,175.263V312.68c37.947,0,68.709-30.762,68.709-68.709S293.947,175.263,256,175.263z"/>
</g>
<path style="fill:#A16125;" d="M276.448,289.605c-21.76,9.419-31.764,34.694-22.345,56.453c9.419,21.76,34.694,31.764,56.453,22.345
	c21.76-9.419,70.938-77.487,70.938-77.487S298.208,280.187,276.448,289.605z"/>
<path style="fill:#C27526;" d="M235.552,290.329c21.76,9.419,31.764,34.694,22.345,56.453c-9.419,21.76-34.694,31.764-56.453,22.345
	c-21.76-9.419-70.938-77.487-70.938-77.487S213.791,280.91,235.552,290.329z"/>
<path style="fill:#DF871E;" d="M263.505,302.651c12.751,16.52,9.696,40.249-6.824,53c-16.52,12.751-40.249,9.696-53-6.824
	c-12.751-16.52-21.652-89.892-21.652-89.892S250.754,286.13,263.505,302.651z"/>
<path style="fill:#C27526;" d="M247.845,302.651c-12.751,16.52-9.696,40.249,6.824,53c16.519,12.751,40.249,9.696,53-6.824
	c12.751-16.52,21.652-89.892,21.652-89.892S260.596,286.13,247.845,302.651z"/>
<g>
</g>
<g>
</g>
<g>
</g>
<g>
</g>
<g>
</g>
<g>
</g>
<g>
</g>
<g>
</g>
<g>
</g>
<g>
</g>
<g>
</g>
<g>
</g>
<g>
</g>
<g>
</g>
<g>
</g>
</svg>
